<svg width="66" height="54" viewBox="0 0 66 54" fill="none" xmlns="http://www.w3.org/2000/svg">
    <path d="M26.329 21.5a5.168 5.168 0 0 0-.155-.707 5.29 5.29 0 0 0-2.55-3.188 5.274 5.274 0 0 0-4.05-.465 5.17 5.17 0 0 0-3.204 2.533 5.305 5.305 0 0 0-.465 4.066c0 .224.155.448.241.672a5.358 5.358 0 0 0-2.584 6.151 5.168 5.168 0 0 0 2.532 3.205 5.169 5.169 0 0 0 4.067.465 5.048 5.048 0 0 0 1.568-.74c-.019.3-.053.599-.104.895a.758.758 0 0 1-.43.586 1.068 1.068 0 0 0-.62 1.292l.223.81a1.12 1.12 0 0 0 1.051.793h.31l6.152-1.723a1.085 1.085 0 0 0 .758-1.344l-.242-.793a1.086 1.086 0 0 0-1.206-.792.705.705 0 0 1-.672-.259l-.568-.706a4.877 4.877 0 0 0 1.723-.207 5.168 5.168 0 0 0 3.204-2.533 5.169 5.169 0 0 0 .466-4.066 5.358 5.358 0 0 0-5.445-3.946zm.396 13.232-3.928 1.12c.294-.346.48-.772.534-1.223.138-1.017.207-1.913.259-2.774v-.517l.31.43c.517.69 1.033 1.413 1.723 2.206.268.331.618.587 1.016.74l.086.018zm3.084-6.151a3.567 3.567 0 0 1-2.17 1.723 3.549 3.549 0 0 1-3.05-.5.896.896 0 0 0-1.12.104 1.489 1.489 0 0 0-.172.275.914.914 0 0 0-.293-.138.861.861 0 0 0-1 .5 3.567 3.567 0 0 1-2.326 2.033 3.548 3.548 0 0 1-2.74-.31 3.565 3.565 0 0 1-1.722-2.171 3.618 3.618 0 0 1 2.412-4.445.877.877 0 0 0 .59-.943.842.842 0 0 0-.142-.367 3.31 3.31 0 0 1-.517-1.085 3.618 3.618 0 0 1 .31-2.74 3.617 3.617 0 0 1 2.171-1.723 3.326 3.326 0 0 1 1-.138c.601.01 1.192.163 1.722.448a3.618 3.618 0 0 1 1.723 2.171c.107.381.153.777.138 1.172a.88.88 0 0 0 .31.724.86.86 0 0 0 .759.155 3.653 3.653 0 0 1 4.393 2.515 3.532 3.532 0 0 1-.31 2.74h.035zm33.048-14.146L44.248 3.7a4.859 4.859 0 0 0-6.616 1.723l-2.12 3.67-1.481-5.17A5.428 5.428 0 0 0 27.346.204L3.93 6.992A5.376 5.376 0 0 0 .69 9.559a5.376 5.376 0 0 0-.482 4.118l10.338 36.39a5.41 5.41 0 0 0 5.17 3.928c.5-.002.999-.072 1.481-.207l18.73-5.29 5.392 3.12a4.858 4.858 0 0 0 2.412.637 4.84 4.84 0 0 0 4.204-2.412l16.61-28.757a4.86 4.86 0 0 0-1.774-6.651h.086zM16.818 52.117a3.687 3.687 0 0 1-4.566-2.516L1.914 13.211c-.272-.94-.16-1.95.31-2.808A3.722 3.722 0 0 1 4.447 8.68L27.88 1.995c.323-.1.66-.153 1-.155a3.704 3.704 0 0 1 3.548 2.688L42.767 40.9a3.704 3.704 0 0 1-2.533 4.566l-23.416 6.651zm21.779-32.134a3.618 3.618 0 0 1 1.12-.569 3.582 3.582 0 0 1 2.722.362c.84.473 1.46 1.26 1.723 2.188l.603 2.31 2.309-.621a3.636 3.636 0 0 1 2.74.362 3.567 3.567 0 0 1 1.723 2.188 3.602 3.602 0 0 1-2.55 4.41l-6.737 1.81-3.653-12.44zm24.45.207L46.453 48.947a3.136 3.136 0 0 1-4.273 1.137l-3.963-2.292 2.498-.706a5.409 5.409 0 0 0 3.722-6.685l-1.723-6.307 6.72-1.826a5.324 5.324 0 0 0 3.773-6.513 5.393 5.393 0 0 0-2.481-3.24 5.271 5.271 0 0 0-4.05-.516l-.637.172-.172-.655a5.17 5.17 0 0 0-2.481-3.222 5.17 5.17 0 0 0-4.032-.534c-.409.104-.803.26-1.172.465l-1.93-6.754L39.2 6.302a3.136 3.136 0 0 1 4.273-1.137l18.522 10.683a3.12 3.12 0 0 1 1.448 1.912 3.067 3.067 0 0 1-.397 2.43z" fill="url(#jp42go4wxa)"/>
    <defs>
        <linearGradient id="jp42go4wxa" x1="5.94" y1="53.536" x2="73.058" y2="39.495" gradientUnits="userSpaceOnUse">
            <stop stop-color="#E1C895"/>
            <stop offset="1" stop-color="#C9A761"/>
        </linearGradient>
    </defs>
</svg>
