<svg width="53" height="52" viewBox="0 0 53 52" fill="none" xmlns="http://www.w3.org/2000/svg">
    <path d="M46.831 51.466H5.755A5.772 5.772 0 0 1 0 45.711v-34.89a5.755 5.755 0 0 1 5.755-5.755h4.6v6.202a5.17 5.17 0 0 0 10.338 0V5.066h11.2v6.202a5.17 5.17 0 0 0 10.338 0V5.066h4.6a5.737 5.737 0 0 1 5.738 5.754v34.891a5.755 5.755 0 0 1-5.738 5.755zM5.755 6.79a4.032 4.032 0 0 0-4.032 4.031v34.891a4.032 4.032 0 0 0 4.032 4.032H46.83a4.015 4.015 0 0 0 4.015-4.032v-34.89a4.015 4.015 0 0 0-4.015-4.032h-2.877v4.48a6.892 6.892 0 1 1-13.784 0v-4.48h-7.754v4.48a6.892 6.892 0 1 1-13.784 0v-4.48H5.755zm9.77 7.219a2.86 2.86 0 0 1-2.86-2.86V2.86A2.86 2.86 0 0 1 15.524 0a2.877 2.877 0 0 1 2.86 2.86v8.219a2.88 2.88 0 0 1-2.86 2.929zm0-12.285a1.154 1.154 0 0 0-1.138 1.137v8.219a1.154 1.154 0 0 0 1.137 1.137 1.155 1.155 0 0 0 1.137-1.137V2.79a1.154 1.154 0 0 0-1.137-1.068zm21.692 12.285a2.86 2.86 0 0 1-2.86-2.86V2.86a2.86 2.86 0 0 1 5.72 0v8.219a2.86 2.86 0 0 1-2.86 2.929zm0-12.285A1.154 1.154 0 0 0 36.08 2.86v8.219a1.155 1.155 0 0 0 1.137 1.137 1.155 1.155 0 0 0 1.137-1.137V2.79a1.154 1.154 0 0 0-1.137-1.068zm4.204 31.1H11.165a3.446 3.446 0 0 1 0-6.892h30.256a3.446 3.446 0 1 1 0 6.892zm-30.256-5.169a1.723 1.723 0 0 0 0 3.446h30.256a1.723 1.723 0 1 0 0-3.446H11.165z" fill="url(#qxnakecq8a)"/>
    <defs>
        <linearGradient id="qxnakecq8a" x1="4.789" y1="51.029" x2="59.555" y2="41.338" gradientUnits="userSpaceOnUse">
            <stop stop-color="#E1C895"/>
            <stop offset="1" stop-color="#C9A761"/>
        </linearGradient>
    </defs>
</svg>
