<?xml version="1.0" standalone="no"?>
<!DOCTYPE svg PUBLIC "-//W3C//DTD SVG 20010904//EN"
 "http://www.w3.org/TR/2001/REC-SVG-20010904/DTD/svg10.dtd">
<svg version="1.0" xmlns="http://www.w3.org/2000/svg"
 width="210.000000pt" height="210.000000pt" viewBox="0 0 210.000000 210.000000"
 preserveAspectRatio="xMidYMid meet">
<metadata>
Created by potrace 1.14, written by Peter Selinger 2001-2017
</metadata>
<g transform="translate(0.000000,210.000000) scale(0.100000,-0.100000)"
fill="#000000" stroke="none">
<path d="M1120 1941 c-137 -42 -217 -171 -238 -386 -12 -119 -5 -364 13 -455
3 -14 9 -47 15 -75 5 -27 11 -59 14 -70 7 -36 18 -139 21 -200 5 -92 -33 -145
-103 -145 -78 0 -114 47 -147 190 -2 7 -23 136 -29 175 -23 144 -71 356 -88
387 -46 82 -114 138 -188 154 -38 8 -104 7 -133 -2 -18 -6 -18 -7 1 -27 34
-38 44 -65 68 -187 3 -19 8 -170 9 -335 1 -165 5 -325 9 -355 23 -201 102
-347 231 -429 l49 -31 199 0 199 0 57 35 c111 68 183 161 210 270 50 199 39
437 -30 670 -11 39 -22 79 -24 90 -2 11 -11 58 -20 105 -50 267 -35 478 41
581 23 31 23 34 7 41 -24 9 -111 8 -143 -1z"/>
<path d="M1713 1511 c-95 -24 -162 -106 -202 -249 -16 -58 -19 -105 -20 -293
-1 -123 -3 -237 -6 -254 -3 -16 -7 -52 -9 -80 -19 -195 -78 -364 -155 -445
l-38 -40 124 0 c88 0 132 4 151 14 30 16 88 75 119 121 26 37 68 155 78 215 4
25 9 54 11 65 9 46 14 160 13 310 -1 287 2 384 17 459 8 43 38 123 55 148 11
14 19 28 19 30 0 8 -124 7 -157 -1z"/>
</g>
</svg>
